<mxfile host="app.diagrams.net" modified="2023-11-27T23:56:38.736Z" agent="Mozilla/5.0 (Windows NT 10.0; Win64; x64) AppleWebKit/537.36 (KHTML, like Gecko) Chrome/119.0.0.0 Safari/537.36" etag="R8KwYaXGyUqF_Fi7kunf" version="22.1.4" type="google">
  <diagram name="Page-1" id="5d7acffa-a066-3a61-03fe-96351882024d">
    <mxGraphModel grid="1" page="1" gridSize="10" guides="1" tooltips="1" connect="1" arrows="1" fold="1" pageScale="1" pageWidth="1100" pageHeight="850" background="#ffffff" math="0" shadow="0">
      <root>
        <mxCell id="0" />
        <mxCell id="1" parent="0" />
        <mxCell id="Pr1gmsNdqlQjarCnWCBE-16" style="edgeStyle=orthogonalEdgeStyle;rounded=0;orthogonalLoop=1;jettySize=auto;html=1;exitX=0.5;exitY=1;exitDx=0;exitDy=0;entryX=0.5;entryY=0;entryDx=0;entryDy=0;" edge="1" parent="1" source="-XC3swDruI5zBZjCfiDk-1" target="A1dLySFg6efkIZftY7nv-2">
          <mxGeometry relative="1" as="geometry" />
        </mxCell>
        <mxCell id="-XC3swDruI5zBZjCfiDk-1" value="2" style="swimlane;html=1;fontStyle=0;childLayout=stackLayout;horizontal=1;startSize=26;fillColor=#e0e0e0;horizontalStack=0;resizeParent=1;resizeLast=0;collapsible=1;marginBottom=0;swimlaneFillColor=#ffffff;align=center;rounded=1;shadow=0;comic=0;labelBackgroundColor=none;strokeWidth=1;fontFamily=Verdana;fontSize=12" vertex="1" parent="1">
          <mxGeometry x="437.5" y="1140" width="160" height="140" as="geometry" />
        </mxCell>
        <mxCell id="-XC3swDruI5zBZjCfiDk-2" value="&lt;font style=&quot;font-size: 16px;&quot;&gt;&lt;span style=&quot;color: rgb(0, 0, 0); font-family: Verdana; font-style: normal; font-variant-ligatures: normal; font-variant-caps: normal; letter-spacing: normal; orphans: 2; text-align: center; text-indent: 0px; text-transform: none; widows: 2; word-spacing: 0px; -webkit-text-stroke-width: 0px; background-color: rgb(251, 251, 251); text-decoration-thickness: initial; text-decoration-style: initial; text-decoration-color: initial; float: none; display: inline !important;&quot;&gt;Booking_Ticket&amp;nbsp;&lt;/span&gt;&lt;/font&gt;" style="text;align=center;fontStyle=1;verticalAlign=middle;spacingLeft=3;spacingRight=3;strokeColor=none;rotatable=0;points=[[0,0.5],[1,0.5]];portConstraint=eastwest;html=1;" vertex="1" parent="-XC3swDruI5zBZjCfiDk-1">
          <mxGeometry y="26" width="160" height="104" as="geometry" />
        </mxCell>
        <mxCell id="-XC3swDruI5zBZjCfiDk-3" style="edgeStyle=none;html=1;labelBackgroundColor=none;startFill=0;startSize=8;endFill=1;endSize=8;fontFamily=Verdana;fontSize=12;exitX=0.493;exitY=1.012;exitDx=0;exitDy=0;exitPerimeter=0;entryX=1;entryY=0.5;entryDx=0;entryDy=0;" edge="1" parent="1" source="-XC3swDruI5zBZjCfiDk-6" target="-XC3swDruI5zBZjCfiDk-2">
          <mxGeometry relative="1" as="geometry">
            <mxPoint x="861.4399999999998" y="1238.5200000000002" as="sourcePoint" />
            <mxPoint x="598" y="1236" as="targetPoint" />
          </mxGeometry>
        </mxCell>
        <mxCell id="ReFOVLkjo_GRudAR1mAy-1" value="&lt;span style=&quot;border-color: var(--border-color); font-size: 15px; background-color: rgb(251, 251, 251);&quot;&gt;Book Tickets&amp;nbsp;&lt;/span&gt;" style="edgeLabel;html=1;align=center;verticalAlign=middle;resizable=0;points=[];fontSize=15;fontStyle=0" connectable="0" vertex="1" parent="-XC3swDruI5zBZjCfiDk-3">
          <mxGeometry x="0.105" y="3" relative="1" as="geometry">
            <mxPoint x="16" y="-22" as="offset" />
          </mxGeometry>
        </mxCell>
        <mxCell id="-XC3swDruI5zBZjCfiDk-4" value="Entity" style="verticalAlign=top;align=left;spacingTop=8;spacingLeft=2;spacingRight=12;shape=cube;size=10;direction=south;fontStyle=4;html=1;whiteSpace=wrap;" vertex="1" parent="1">
          <mxGeometry x="140" y="1400" width="180" height="120" as="geometry" />
        </mxCell>
        <mxCell id="-XC3swDruI5zBZjCfiDk-5" value="&lt;font style=&quot;font-size: 16px;&quot;&gt;Bank&lt;/font&gt;" style="text;align=center;fontStyle=1;verticalAlign=middle;spacingLeft=3;spacingRight=3;strokeColor=none;rotatable=0;points=[[0,0.5],[1,0.5]];portConstraint=eastwest;html=1;" vertex="1" parent="1">
          <mxGeometry x="180" y="1447" width="80" height="26" as="geometry" />
        </mxCell>
        <mxCell id="Pr1gmsNdqlQjarCnWCBE-8" style="edgeStyle=orthogonalEdgeStyle;rounded=1;orthogonalLoop=1;jettySize=auto;html=1;exitX=-0.011;exitY=0.444;exitDx=0;exitDy=0;exitPerimeter=0;entryX=1;entryY=0.5;entryDx=0;entryDy=0;" edge="1" parent="1" source="-XC3swDruI5zBZjCfiDk-6" target="-XC3swDruI5zBZjCfiDk-25">
          <mxGeometry relative="1" as="geometry">
            <mxPoint x="955.7142857142858" y="940" as="targetPoint" />
          </mxGeometry>
        </mxCell>
        <mxCell id="ReFOVLkjo_GRudAR1mAy-2" value="&lt;span style=&quot;font-size: 15px;&quot;&gt;&lt;font style=&quot;font-size: 15px;&quot;&gt;give feedback&amp;nbsp;&lt;/font&gt;&lt;/span&gt;" style="edgeLabel;html=1;align=center;verticalAlign=middle;resizable=0;points=[];fontSize=15;fontStyle=0" connectable="0" vertex="1" parent="Pr1gmsNdqlQjarCnWCBE-8">
          <mxGeometry x="0.4046" y="-3" relative="1" as="geometry">
            <mxPoint x="-54" y="-15" as="offset" />
          </mxGeometry>
        </mxCell>
        <mxCell id="-XC3swDruI5zBZjCfiDk-6" value="Entity" style="verticalAlign=top;align=left;spacingTop=8;spacingLeft=2;spacingRight=12;shape=cube;size=10;direction=south;fontStyle=4;html=1;whiteSpace=wrap;" vertex="1" parent="1">
          <mxGeometry x="860" y="1160" width="180" height="120" as="geometry" />
        </mxCell>
        <mxCell id="-XC3swDruI5zBZjCfiDk-7" value="&lt;font style=&quot;font-size: 16px;&quot;&gt;User&lt;/font&gt;" style="text;align=center;fontStyle=1;verticalAlign=middle;spacingLeft=3;spacingRight=3;strokeColor=none;rotatable=0;points=[[0,0.5],[1,0.5]];portConstraint=eastwest;html=1;fontSize=12;" vertex="1" parent="1">
          <mxGeometry x="910" y="1210" width="80" height="26" as="geometry" />
        </mxCell>
        <mxCell id="A1dLySFg6efkIZftY7nv-6" style="edgeStyle=orthogonalEdgeStyle;rounded=1;orthogonalLoop=1;jettySize=auto;html=1;entryX=0;entryY=0.5;entryDx=0;entryDy=0;" edge="1" parent="1" source="-XC3swDruI5zBZjCfiDk-8" target="-XC3swDruI5zBZjCfiDk-2">
          <mxGeometry relative="1" as="geometry" />
        </mxCell>
        <mxCell id="A1dLySFg6efkIZftY7nv-13" value="add discount" style="edgeLabel;html=1;align=center;verticalAlign=middle;resizable=0;points=[];fontSize=15;fontStyle=0" vertex="1" connectable="0" parent="A1dLySFg6efkIZftY7nv-6">
          <mxGeometry x="0.467" y="3" relative="1" as="geometry">
            <mxPoint x="-36" y="-15" as="offset" />
          </mxGeometry>
        </mxCell>
        <mxCell id="-XC3swDruI5zBZjCfiDk-8" value="Entity" style="verticalAlign=top;align=left;spacingTop=8;spacingLeft=2;spacingRight=12;shape=cube;size=10;direction=south;fontStyle=4;html=1;whiteSpace=wrap;" vertex="1" parent="1">
          <mxGeometry x="70" y="986" width="180" height="120" as="geometry" />
        </mxCell>
        <mxCell id="-XC3swDruI5zBZjCfiDk-9" value="&lt;font style=&quot;font-size: 16px;&quot;&gt;Admin&lt;/font&gt;" style="text;align=center;fontStyle=1;verticalAlign=middle;spacingLeft=3;spacingRight=3;strokeColor=none;rotatable=0;points=[[0,0.5],[1,0.5]];portConstraint=eastwest;html=1;strokeWidth=1;perimeterSpacing=0;" vertex="1" parent="1">
          <mxGeometry x="120" y="1038" width="80" height="26" as="geometry" />
        </mxCell>
        <mxCell id="-XC3swDruI5zBZjCfiDk-14" style="edgeStyle=none;html=1;labelBackgroundColor=none;startFill=0;startSize=8;endFill=1;endSize=8;fontFamily=Verdana;fontSize=12;exitX=0;exitY=0.5;exitDx=0;exitDy=0;entryX=0.559;entryY=0.003;entryDx=0;entryDy=0;entryPerimeter=0;" edge="1" parent="1" source="-XC3swDruI5zBZjCfiDk-23" target="-XC3swDruI5zBZjCfiDk-4">
          <mxGeometry relative="1" as="geometry">
            <mxPoint x="521.25" y="1480" as="sourcePoint" />
            <mxPoint x="520.1300000000001" y="1579.9999999999998" as="targetPoint" />
          </mxGeometry>
        </mxCell>
        <mxCell id="A1dLySFg6efkIZftY7nv-9" value="deposit" style="edgeLabel;html=1;align=center;verticalAlign=middle;resizable=0;points=[];fontSize=15;fontStyle=0" vertex="1" connectable="0" parent="-XC3swDruI5zBZjCfiDk-14">
          <mxGeometry x="0.2429" y="2" relative="1" as="geometry">
            <mxPoint x="4" y="-19" as="offset" />
          </mxGeometry>
        </mxCell>
        <mxCell id="-XC3swDruI5zBZjCfiDk-16" style="edgeStyle=none;html=1;labelBackgroundColor=none;startFill=0;startSize=8;endFill=1;endSize=8;fontFamily=Verdana;fontSize=12;exitX=0.644;exitY=-0.011;exitDx=0;exitDy=0;exitPerimeter=0;" edge="1" parent="1" source="-XC3swDruI5zBZjCfiDk-8">
          <mxGeometry relative="1" as="geometry">
            <mxPoint x="138.75" y="1056" as="sourcePoint" />
            <mxPoint x="440" y="960" as="targetPoint" />
            <Array as="points">
              <mxPoint x="400" y="1063" />
              <mxPoint x="400" y="960" />
            </Array>
          </mxGeometry>
        </mxCell>
        <mxCell id="-XC3swDruI5zBZjCfiDk-17" value="&lt;span style=&quot;font-size: 15px;&quot;&gt;Update Movies&lt;br style=&quot;font-size: 15px;&quot;&gt;&lt;/span&gt;" style="text;html=1;align=center;verticalAlign=middle;resizable=0;points=[];autosize=1;strokeColor=none;fillColor=none;fontSize=15;fontStyle=0" vertex="1" parent="1">
          <mxGeometry x="285" y="1066" width="120" height="30" as="geometry" />
        </mxCell>
        <mxCell id="-XC3swDruI5zBZjCfiDk-21" value="&lt;span style=&quot;border-color: var(--border-color); font-size: 15px;&quot;&gt;&lt;span style=&quot;font-size: 15px;&quot;&gt;Update Cinema&amp;nbsp;&lt;/span&gt;&lt;/span&gt;" style="text;html=1;align=center;verticalAlign=middle;resizable=0;points=[];autosize=1;strokeColor=none;fillColor=none;fontSize=15;fontStyle=0" vertex="1" parent="1">
          <mxGeometry x="280" y="1036" width="130" height="30" as="geometry" />
        </mxCell>
        <mxCell id="-XC3swDruI5zBZjCfiDk-22" value="3" style="swimlane;html=1;fontStyle=0;childLayout=stackLayout;horizontal=1;startSize=26;fillColor=#e0e0e0;horizontalStack=0;resizeParent=1;resizeLast=0;collapsible=1;marginBottom=0;swimlaneFillColor=#ffffff;align=center;rounded=1;shadow=0;comic=0;labelBackgroundColor=none;strokeWidth=1;fontFamily=Verdana;fontSize=12" vertex="1" parent="1">
          <mxGeometry x="437.5" y="1390" width="160" height="140" as="geometry" />
        </mxCell>
        <mxCell id="-XC3swDruI5zBZjCfiDk-23" value="&lt;font style=&quot;font-size: 16px;&quot;&gt;Apply Pyament&lt;/font&gt;" style="text;align=center;fontStyle=1;verticalAlign=middle;spacingLeft=3;spacingRight=3;strokeColor=none;rotatable=0;points=[[0,0.5],[1,0.5]];portConstraint=eastwest;html=1;" vertex="1" parent="-XC3swDruI5zBZjCfiDk-22">
          <mxGeometry y="26" width="160" height="104" as="geometry" />
        </mxCell>
        <mxCell id="-XC3swDruI5zBZjCfiDk-24" value="1" style="swimlane;html=1;fontStyle=0;childLayout=stackLayout;horizontal=1;startSize=26;fillColor=#e0e0e0;horizontalStack=0;resizeParent=1;resizeLast=0;collapsible=1;marginBottom=0;swimlaneFillColor=#ffffff;align=center;rounded=1;shadow=0;comic=0;labelBackgroundColor=none;strokeWidth=1;fontFamily=Verdana;fontSize=12" vertex="1" parent="1">
          <mxGeometry x="441.25" y="860" width="160" height="140" as="geometry" />
        </mxCell>
        <mxCell id="-XC3swDruI5zBZjCfiDk-25" value="&lt;font style=&quot;font-size: 16px;&quot;&gt;Manage_Movies&amp;nbsp;&lt;/font&gt;" style="text;align=center;fontStyle=1;verticalAlign=middle;spacingLeft=3;spacingRight=3;strokeColor=none;rotatable=0;points=[[0,0.5],[1,0.5]];portConstraint=eastwest;html=1;" vertex="1" parent="-XC3swDruI5zBZjCfiDk-24">
          <mxGeometry y="26" width="160" height="104" as="geometry" />
        </mxCell>
        <mxCell id="Pr1gmsNdqlQjarCnWCBE-1" style="edgeStyle=orthogonalEdgeStyle;rounded=0;orthogonalLoop=1;jettySize=auto;html=1;entryX=0.5;entryY=0;entryDx=0;entryDy=0;" edge="1" parent="1" source="-XC3swDruI5zBZjCfiDk-26" target="-XC3swDruI5zBZjCfiDk-1">
          <mxGeometry relative="1" as="geometry">
            <Array as="points">
              <mxPoint x="518" y="1110" />
            </Array>
          </mxGeometry>
        </mxCell>
        <mxCell id="-XC3swDruI5zBZjCfiDk-26" value="&lt;b&gt;D1&lt;/b&gt;" style="html=1;dashed=0;whiteSpace=wrap;shape=mxgraph.dfd.dataStoreID;align=left;spacingLeft=3;points=[[0,0],[0.5,0],[1,0],[0,0.5],[1,0.5],[0,1],[0.5,1],[1,1]];" vertex="1" parent="1">
          <mxGeometry x="471.25" y="1050" width="100" height="30" as="geometry" />
        </mxCell>
        <mxCell id="-XC3swDruI5zBZjCfiDk-27" style="edgeStyle=none;html=1;labelBackgroundColor=none;startFill=0;startSize=8;endFill=1;endSize=8;fontFamily=Verdana;fontSize=12;exitX=1.013;exitY=0.715;exitDx=0;exitDy=0;exitPerimeter=0;" edge="1" parent="1" source="-XC3swDruI5zBZjCfiDk-23">
          <mxGeometry relative="1" as="geometry">
            <mxPoint x="576" y="1569" as="sourcePoint" />
            <mxPoint x="960" y="1280" as="targetPoint" />
            <Array as="points">
              <mxPoint x="960" y="1490" />
            </Array>
          </mxGeometry>
        </mxCell>
        <mxCell id="A1dLySFg6efkIZftY7nv-10" value="invoice" style="edgeLabel;html=1;align=center;verticalAlign=middle;resizable=0;points=[];fontSize=15;fontStyle=0" vertex="1" connectable="0" parent="-XC3swDruI5zBZjCfiDk-27">
          <mxGeometry x="-0.5132" y="-1" relative="1" as="geometry">
            <mxPoint y="-11" as="offset" />
          </mxGeometry>
        </mxCell>
        <mxCell id="A1dLySFg6efkIZftY7nv-11" value="ticket num" style="edgeLabel;html=1;align=center;verticalAlign=middle;resizable=0;points=[];fontSize=15;fontStyle=0" vertex="1" connectable="0" parent="-XC3swDruI5zBZjCfiDk-27">
          <mxGeometry x="-0.4019" y="1" relative="1" as="geometry">
            <mxPoint x="-30" y="11" as="offset" />
          </mxGeometry>
        </mxCell>
        <mxCell id="-XC3swDruI5zBZjCfiDk-29" style="edgeStyle=none;html=1;labelBackgroundColor=none;startFill=0;startSize=8;endFill=1;endSize=8;fontFamily=Verdana;fontSize=12;entryX=1.016;entryY=0.375;entryDx=0;entryDy=0;entryPerimeter=0;" edge="1" parent="1" target="-XC3swDruI5zBZjCfiDk-23">
          <mxGeometry relative="1" as="geometry">
            <mxPoint x="920" y="1280" as="sourcePoint" />
            <mxPoint x="600" y="1400" as="targetPoint" />
            <Array as="points">
              <mxPoint x="920" y="1455" />
            </Array>
          </mxGeometry>
        </mxCell>
        <mxCell id="A1dLySFg6efkIZftY7nv-12" value="pay info" style="edgeLabel;html=1;align=center;verticalAlign=middle;resizable=0;points=[];fontSize=15;fontStyle=0" vertex="1" connectable="0" parent="-XC3swDruI5zBZjCfiDk-29">
          <mxGeometry x="0.4504" y="1" relative="1" as="geometry">
            <mxPoint x="4" y="-16" as="offset" />
          </mxGeometry>
        </mxCell>
        <mxCell id="-XC3swDruI5zBZjCfiDk-31" value="&lt;b&gt;Movie, Cinema&lt;/b&gt;" style="text;html=1;align=center;verticalAlign=middle;resizable=0;points=[];autosize=1;strokeColor=none;fillColor=none;" vertex="1" parent="1">
          <mxGeometry x="495" y="1050" width="110" height="30" as="geometry" />
        </mxCell>
        <mxCell id="-XC3swDruI5zBZjCfiDk-32" style="edgeStyle=none;html=1;labelBackgroundColor=none;startFill=0;startSize=8;endFill=1;endSize=8;fontFamily=Verdana;fontSize=12;exitX=0.5;exitY=1;exitDx=0;exitDy=0;entryX=0.5;entryY=0;entryDx=0;entryDy=0;" edge="1" parent="1" source="-XC3swDruI5zBZjCfiDk-24" target="-XC3swDruI5zBZjCfiDk-26">
          <mxGeometry relative="1" as="geometry">
            <mxPoint x="608" y="1272" as="sourcePoint" />
            <mxPoint x="740" y="1000" as="targetPoint" />
          </mxGeometry>
        </mxCell>
        <mxCell id="7_JwqbeA8MhLsBGFni0f-10" style="edgeStyle=none;html=1;labelBackgroundColor=none;startFill=0;startSize=8;endFill=1;endSize=8;fontFamily=Verdana;fontSize=12;exitX=0;exitY=0.5;exitDx=0;exitDy=0;entryX=0.292;entryY=-0.017;entryDx=0;entryDy=0;entryPerimeter=0;" edge="1" parent="1" source="-XC3swDruI5zBZjCfiDk-25" target="-XC3swDruI5zBZjCfiDk-8">
          <mxGeometry relative="1" as="geometry">
            <mxPoint x="229.75" y="880" as="sourcePoint" />
            <mxPoint x="195" y="987" as="targetPoint" />
            <Array as="points">
              <mxPoint x="360" y="940" />
              <mxPoint x="360" y="1021" />
            </Array>
          </mxGeometry>
        </mxCell>
        <mxCell id="ReFOVLkjo_GRudAR1mAy-4" value="&lt;span style=&quot;font-size: 15px;&quot;&gt;&lt;font style=&quot;font-size: 15px;&quot;&gt;feedback&lt;/font&gt;&lt;/span&gt;" style="edgeLabel;html=1;align=center;verticalAlign=middle;resizable=0;points=[];fontSize=15;fontStyle=0" connectable="0" vertex="1" parent="7_JwqbeA8MhLsBGFni0f-10">
          <mxGeometry x="0.5064" y="1" relative="1" as="geometry">
            <mxPoint x="36" y="-38" as="offset" />
          </mxGeometry>
        </mxCell>
        <mxCell id="A1dLySFg6efkIZftY7nv-2" value="D2" style="dashed=0;shape=mxgraph.dfd.dataStoreID;align=left;spacingLeft=3;points=[[0,0],[0.5,0],[1,0],[0,0.5],[1,0.5],[0,1],[0.5,1],[1,1]];html=1;whiteSpace=wrap;" vertex="1" parent="1">
          <mxGeometry x="467.5" y="1330" width="100" height="30" as="geometry" />
        </mxCell>
        <mxCell id="A1dLySFg6efkIZftY7nv-5" style="edgeStyle=orthogonalEdgeStyle;rounded=0;orthogonalLoop=1;jettySize=auto;html=1;exitX=0.272;exitY=1.038;exitDx=0;exitDy=0;exitPerimeter=0;" edge="1" parent="1" source="A1dLySFg6efkIZftY7nv-4" target="-XC3swDruI5zBZjCfiDk-22">
          <mxGeometry relative="1" as="geometry" />
        </mxCell>
        <mxCell id="A1dLySFg6efkIZftY7nv-4" value="ticket details" style="text;html=1;align=center;verticalAlign=middle;resizable=0;points=[];autosize=1;strokeColor=none;fillColor=none;fontStyle=1" vertex="1" parent="1">
          <mxGeometry x="490" y="1330" width="100" height="30" as="geometry" />
        </mxCell>
        <mxCell id="A1dLySFg6efkIZftY7nv-8" value="level 1&amp;nbsp;" style="text;html=1;align=center;verticalAlign=middle;resizable=0;points=[];autosize=1;strokeColor=none;fillColor=none;fontStyle=1;fontSize=45;" vertex="1" parent="1">
          <mxGeometry x="30" y="850" width="170" height="70" as="geometry" />
        </mxCell>
      </root>
    </mxGraphModel>
  </diagram>
</mxfile>
